# File created by Blade
# Date/Time:  Thu Jan 22 16:25:57 2015
#---------------------------------------------------------
:version 1.10
:name HOM
:units
  mass 1.0
  length 1.000000
  angle deg
:documentation
     Acclaim Skeleton File
:root
   axis xyz
   order TX TY TZ RX RY RZ
   position 0.000000 0.000000 0.000000
   orientation 0 0 0
:bonedata
   begin
      id 1
      name RightUpLeg_dum
      direction -1.000000 0.000000 0.000000
      length 3.766986
      axis 0.0 0.0 0.0 xyz
   end
   begin
      id 2
      name LeftUpLeg_dum
      direction 1.000000 0.000000 0.000000
      length 3.766986
      axis 0.0 0.0 0.0 xyz
   end
   begin
      id 3
      name Spine_dum
      direction 0.000000 1.000000 0.000000
      length 7.779697
      axis 0.0 0.0 0.0 xyz
   end
   begin
      id 4
      name RightUpLeg
      direction 0.000000 -1.000000 0.000000
      length 18.017682
      axis 0.0 0.0 0.0 xyz
      dof rx ry rz
   end
   begin
      id 5
      name RightLeg
      direction 0.000000 -1.000000 0.000000
      length 16.881075
      axis 0.0 0.0 0.0 xyz
      dof rx ry rz
   end
   begin
      id 6
      name RightFoot
      direction 0.000000 -0.258819 0.965926
      length 5.770812
      axis 15.0 0.0 0.0 xyz
      dof rx ry rz
   end
   begin
      id 7
      name RightToeBase
      direction 0.000000 0.000000 1.000000
      length 2.952750
      axis 0.0 0.0 0.0 xyz
      dof rx ry rz
   end
   begin
      id 8
      name LeftUpLeg
      direction 0.000000 -1.000000 0.000000
      length 18.017682
      axis 0.0 0.0 0.0 xyz
      dof rx ry rz
   end
   begin
      id 9
      name LeftLeg
      direction 0.000000 -1.000000 0.000000
      length 16.881075
      axis 0.0 0.0 0.0 xyz
      dof rx ry rz
   end
   begin
      id 10
      name LeftFoot
      direction 0.000000 -0.258819 0.965926
      length 5.770812
      axis 15.0 0.0 0.0 xyz
      dof rx ry rz
   end
   begin
      id 11
      name LeftToeBase
      direction 0.000000 0.000000 1.000000
      length 2.952750
      axis 0.0 0.0 0.0 xyz
      dof rx ry rz
   end
   begin
      id 12
      name Spine
      direction 0.000000 1.000000 0.000000
      length 0.000000
      axis 0.0 0.0 0.0 xyz
      dof rx ry rz
   end
   begin
      id 13
      name Spine_dum1
      direction 0.000000 1.000000 0.000000
      length 10.941760
      axis 0.0 0.0 0.0 xyz
   end
   begin
      id 14
      name Spine_dum2
      direction 0.000000 1.000000 0.000000
      length 10.941760
      axis 0.0 0.0 0.0 xyz
   end
   begin
      id 15
      name Spine_dum3
      direction 0.000000 1.000000 0.000000
      length 16.646042
      axis 0.0 0.0 0.0 xyz
   end
   begin
      id 16
      name RightShoulder
      direction -1.000000 0.000000 0.000000
      length 7.708937
      axis 0.0 0.0 90.0 xyz
      dof rx ry rz
   end
   begin
      id 17
      name RightArm
      direction -1.000000 0.000000 0.000000
      length 11.521345
      axis 0.0 0.0 90.0 xyz
      dof rx ry rz
   end
   begin
      id 18
      name RightForeArm
      direction -1.000000 0.000000 0.000000
      length 10.175898
      axis 0.0 0.0 90.0 xyz
      dof ry rz rx
   end
   begin
      id 19
      name RightHand
      direction -1.000000 0.000000 0.000000
      length 0.000000
      axis 0.0 0.0 90.0 xyz
      dof rx ry rz
   end
   begin
      id 20
      name RightHand_dum1
      direction -1.000000 0.000000 0.000000
      length 3.937000
      axis 0.0 0.0 90.0 xyz
   end
   begin
      id 21
      name RightHand_dum2
      direction 0.000000 0.000000 0.000000
      length 0.000000
      axis 0.0 0.0 90.0 xyz
   end
   begin
      id 22
      name RightHandThumb1
      direction 0.000000 0.000000 1.000000
      length 3.937000
      axis 0.0 0.0 90.0 xyz
      dof rx rz ry
   end
   begin
      id 23
      name LeftShoulder
      direction 1.000000 0.000000 0.000000
      length 7.708937
      axis 0.0 0.0 -90.0 xyz
      dof rx ry rz
   end
   begin
      id 24
      name LeftArm
      direction 1.000000 0.000000 0.000000
      length 11.521345
      axis 0.0 0.0 -90.0 xyz
      dof rx ry rz
   end
   begin
      id 25
      name LeftForeArm
      direction 1.000000 0.000000 0.000000
      length 10.175898
      axis 0.0 0.0 -90.0 xyz
      dof ry rz rx
   end
   begin
      id 26
      name LeftHand
      direction 1.000000 0.000000 0.000000
      length 0.000000
      axis 0.0 0.0 -90.0 xyz
      dof rx ry rz
   end
   begin
      id 27
      name LeftHand_dum1
      direction 1.000000 0.000000 0.000000
      length 3.937000
      axis 0.0 0.0 -90.0 xyz
   end
   begin
      id 28
      name LeftHand_dum2
      direction 0.000000 0.000000 0.000000
      length 0.000000
      axis 0.0 0.0 -90.0 xyz
   end
   begin
      id 29
      name LeftHandThumb1
      direction 0.000000 0.000000 1.000000
      length 3.937000
      axis 0.0 0.0 -90.0 xyz
      dof rx rz ry
   end
   begin
      id 30
      name Head
      direction 0.000000 1.000000 0.000000
      length 4.527550
      axis 0.0 0.0 0.0 xyz
      dof rx ry rz
   end
:hierarchy
   begin
      root RightUpLeg_dum LeftUpLeg_dum Spine_dum
      RightUpLeg_dum RightUpLeg
      LeftUpLeg_dum LeftUpLeg
      Spine_dum Spine
      RightUpLeg RightLeg
      RightLeg RightFoot
      RightFoot RightToeBase
      LeftUpLeg LeftLeg
      LeftLeg LeftFoot
      LeftFoot LeftToeBase
      Spine Spine_dum1 Spine_dum2 Spine_dum3
      Spine_dum1 RightShoulder
      Spine_dum2 LeftShoulder
      Spine_dum3 Head
      RightShoulder RightArm
      RightArm RightForeArm
      RightForeArm RightHand
      RightHand RightHand_dum1 RightHand_dum2
      RightHand_dum2 RightHandThumb1
      LeftShoulder LeftArm
      LeftArm LeftForeArm
      LeftForeArm LeftHand
      LeftHand LeftHand_dum1 LeftHand_dum2
      LeftHand_dum2 LeftHandThumb1
   end

# File created by Blade
# Date/Time:  Thu Jan 22 16:25:48 2015
# Frame Rate: 120.000 fps
#------------------------------------------------------
:FULLY-SPECIFIED
:DEGREES
36
root 1.797093 37.139354 5.997870 -2.199703 -2.862319 2.148272
RightUpLeg 11.483263 1.229388 -3.061119
RightLeg -5.973716 -0.000000 0.000000
RightFoot -11.781100 -13.418164 17.506480
RightToeBase 13.927500 -0.000000 -0.000000
LeftUpLeg 9.828642 1.810011 -0.564099
LeftLeg -2.482419 -0.000000 0.000000
LeftFoot -9.544526 11.727144 -15.943827
LeftToeBase 9.398565 -0.000000 -0.000000
Spine 3.088122 -3.632061 -2.124200
RightShoulder -3.747785 -7.171186 -24.930750
RightArm 7.918396 28.516541 32.017862
RightForeArm 7.501386 -0.000000 18.391234
RightHand 1.065755 -0.000000 1.257706
RightHandThumb1 -24.326973 -0.000000 -32.862282
LeftShoulder -22.917596 29.017690 15.705981
LeftArm 42.993648 -49.585714 -54.446328
LeftForeArm 39.400486 -0.000000 6.390172
LeftHand -16.914295 -0.000000 -8.635319
LeftHandThumb1 -26.253704 0.000000 33.147579
Head -1.997423 13.067771 4.083644
37
root 1.803039 37.139542 6.001857 -2.216139 -2.842911 2.143442
RightUpLeg 11.483874 1.116971 -3.076384
RightLeg -5.924215 -0.000000 0.000000
RightFoot -11.772646 -13.342855 17.465057
RightToeBase 13.920620 -0.000000 -0.000000
LeftUpLeg 9.852981 1.767995 -0.572147
LeftLeg -2.489545 -0.000000 0.000000
LeftFoot -9.551414 11.751545 -15.939093
LeftToeBase 9.367954 -0.000000 -0.000000
Spine 3.099330 -3.650829 -2.126355
RightShoulder -3.739852 -7.123127 -24.931506
RightArm 7.904166 28.437333 32.026265
RightForeArm 7.496781 -0.000000 18.412254
RightHand 1.089855 0.000000 1.151634
RightHandThumb1 -24.326973 -0.000000 -32.862282
LeftShoulder -22.919919 29.021949 15.722034
LeftArm 42.991766 -49.569391 -54.431751
LeftForeArm 39.438567 -0.000000 6.405111
LeftHand -16.990645 -0.000000 -8.504550
LeftHandThumb1 -26.253704 0.000000 33.147579
Head -1.979169 13.055831 4.109857
38
root 1.809342 37.139176 6.006515 -2.234737 -2.829428 2.149891
RightUpLeg 11.505250 1.123261 -3.091522
RightLeg -5.908883 -0.000000 0.000000
RightFoot -11.790964 -13.343864 17.471870
RightToeBase 13.893594 -0.000000 -0.000000
LeftUpLeg 9.877876 1.754572 -0.588678
LeftLeg -2.491302 -0.000000 0.000000
LeftFoot -9.549908 11.755087 -15.913544
LeftToeBase 9.382313 -0.000000 -0.000000
Spine 3.114610 -3.639166 -2.146316
RightShoulder -3.772349 -7.172286 -24.907982
RightArm 7.973988 28.524947 32.080443
RightForeArm 7.435101 -0.000000 18.432279
RightHand 1.116658 0.000000 1.159951
RightHandThumb1 -24.326973 -0.000000 -32.862282
LeftShoulder -22.902093 29.022392 15.741994
LeftArm 42.984518 -49.558524 -54.388755
LeftForeArm 39.409119 0.000000 6.415032
LeftHand -16.941473 0.000000 -8.544751
LeftHandThumb1 -26.253704 0.000000 33.147579
Head -1.972579 13.019854 4.149856
39
root 1.814968 37.139331 6.009069 -2.234738 -2.810508 2.145129
RightUpLeg 11.508000 1.136570 -3.093455
RightLeg -5.897254 -0.000000 0.000000
RightFoot -11.817934 -13.354236 17.520195
RightToeBase 13.918962 -0.000000 -0.000000
LeftUpLeg 9.876199 1.721842 -0.596289
LeftLeg -2.483356 -0.000000 0.000000
LeftFoot -9.560835 11.764143 -15.909212
LeftToeBase 9.361237 -0.000000 -0.000000
Spine 3.098202 -3.661375 -2.148332
RightShoulder -3.746355 -7.182807 -24.905031
RightArm 7.978650 28.510974 32.093447
RightForeArm 7.441017 -0.000000 18.451175
RightHand 1.076289 -0.000000 1.065086
RightHandThumb1 -24.326973 -0.000000 -32.862282
LeftShoulder -22.891344 29.070843 15.747024
LeftArm 43.002269 -49.584793 -54.397446
LeftForeArm 39.462292 -0.000000 6.441942
LeftHand -16.940483 -0.000000 -8.468215
LeftHandThumb1 -26.253704 0.000000 33.147579
Head -1.926107 12.982731 4.166647
40
root 1.820580 37.139012 6.013076 -2.247661 -2.798072 2.144711
RightUpLeg 11.522036 1.142330 -3.103307
RightLeg -5.880397 -0.000000 0.000000
RightFoot -11.841945 -13.349254 17.560880
RightToeBase 13.901398 -0.000000 -0.000000
LeftUpLeg 9.891200 1.712006 -0.604271
LeftLeg -2.476575 -0.000000 0.000000
LeftFoot -9.567935 11.757605 -15.906015
LeftToeBase 9.388542 -0.000000 -0.000000
Spine 3.105132 -3.675088 -2.157323
RightShoulder -3.736139 -7.180854 -24.882646
RightArm 7.982437 28.502685 32.087731
RightForeArm 7.474632 -0.000000 18.485269
RightHand 1.090523 -0.000000 1.035880
RightHandThumb1 -24.326973 -0.000000 -32.862282
LeftShoulder -22.881209 29.052715 15.764060
LeftArm 42.926786 -49.555930 -54.307476
LeftForeArm 39.466929 -0.000000 6.475601
LeftHand -16.935379 -0.000000 -8.421118
LeftHandThumb1 -26.253704 0.000000 33.147579
Head -1.914805 12.999726 4.185594
41
root 1.826922 37.139055 6.017030 -2.260451 -2.785976 2.147461
RightUpLeg 11.537544 1.151286 -3.114293
RightLeg -5.869187 -0.000000 0.000000
RightFoot -11.842511 -13.355794 17.561655
RightToeBase 13.893750 -0.000000 -0.000000
LeftUpLeg 9.908585 1.698651 -0.617151
LeftLeg -2.476084 -0.000000 0.000000
LeftFoot -9.575460 11.755446 -15.902475
LeftToeBase 9.402256 -0.000000 -0.000000
Spine 3.112508 -3.673899 -2.173129
RightShoulder -3.732806 -7.185906 -24.863758
RightArm 7.974036 28.502908 32.092499
RightForeArm 7.497678 -0.000000 18.524555
RightHand 1.092046 -0.000000 1.010416
RightHandThumb1 -24.326973 -0.000000 -32.862282
LeftShoulder -22.858618 29.049357 15.785338
LeftArm 42.884712 -49.551204 -54.256543
LeftForeArm 39.462234 -0.000000 6.528458
LeftHand -16.961416 0.000000 -8.406160
LeftHandThumb1 -26.253704 0.000000 33.147579
Head -1.902586 12.971609 4.204135
42
root 1.833894 37.138965 6.019775 -2.269366 -2.766109 2.151009
RightUpLeg 11.550173 1.172939 -3.125080
RightLeg -5.858108 -0.000000 0.000000
RightFoot -11.886082 -13.380496 17.611105
RightToeBase 13.928475 -0.000000 -0.000000
LeftUpLeg 9.916338 1.654923 -0.635758
LeftLeg -2.471041 -0.000000 0.000000
LeftFoot -9.584325 11.775251 -15.911066
LeftToeBase 9.380067 -0.000000 -0.000000
Spine 3.120956 -3.673819 -2.188074
RightShoulder -3.723484 -7.137576 -24.868771
RightArm 7.908974 28.426721 32.104125
RightForeArm 7.424609 -0.000000 18.598189
RightHand 1.094637 -0.000000 0.896999
RightHandThumb1 -24.326973 -0.000000 -32.862282
LeftShoulder -22.838093 29.051232 15.798481
LeftArm 42.838212 -49.527395 -54.180838
LeftForeArm 39.410412 -0.000000 6.575084
LeftHand -16.958222 -0.000000 -8.427343
LeftHandThumb1 -26.253704 0.000000 33.147579
Head -1.902472 12.944245 4.214560
43
root 1.840731 37.138924 6.023047 -2.279313 -2.749754 2.150643
RightUpLeg 11.562414 1.183998 -3.133689
RightLeg -5.845966 -0.000000 0.000000
RightFoot -11.894910 -13.390824 17.622248
RightToeBase 13.925779 -0.000000 -0.000000
LeftUpLeg 9.925633 1.637904 -0.642286
LeftLeg -2.466068 -0.000000 0.000000
LeftFoot -9.576652 11.755037 -15.862520
LeftToeBase 9.372044 -0.000000 -0.000000
Spine 3.136846 -3.671556 -2.201023
RightShoulder -3.733642 -7.111328 -24.841115
RightArm 7.881247 28.435265 32.104538
RightForeArm 7.344443 -0.000000 18.671918
RightHand 1.147978 -0.000000 0.898836
RightHandThumb1 -24.326973 -0.000000 -32.862282
LeftShoulder -22.821428 29.013837 15.830984
LeftArm 42.782636 -49.509372 -54.132659
LeftForeArm 39.356440 -0.000000 6.644962
LeftHand -16.938850 -0.000000 -8.610487
LeftHandThumb1 -26.253704 0.000000 33.147579
Head -1.920250 12.938707 4.235651
44
root 1.849115 37.138895 6.025651 -2.285348 -2.739488 2.159239
RightUpLeg 11.563042 1.217966 -3.152138
RightLeg -5.817472 -0.000000 0.000000
RightFoot -11.949508 -13.402310 17.676449
RightToeBase 13.987635 -0.000000 -0.000000
LeftUpLeg 9.924259 1.621165 -0.670893
LeftLeg -2.445573 -0.000000 0.000000
LeftFoot -9.603197 11.779952 -15.889268
LeftToeBase 9.381397 -0.000000 -0.000000
Spine 3.138558 -3.671382 -2.218064
RightShoulder -3.718769 -7.122127 -24.829012
RightArm 7.859111 28.459852 32.110479
RightForeArm 7.372020 -0.000000 18.751327
RightHand 1.097923 -0.000000 0.938015
RightHandThumb1 -24.326973 -0.000000 -32.862282
LeftShoulder -22.807961 29.009874 15.848932
LeftArm 42.753004 -49.499441 -54.109203
LeftForeArm 39.386688 -0.000000 6.705920
LeftHand -16.926802 -0.000000 -8.578226
LeftHandThumb1 -26.253704 0.000000 33.147579
Head -1.901307 12.938538 4.244330
45
root 1.857784 37.138935 6.029704 -2.298743 -2.718378 2.174095
RightUpLeg 11.583931 1.241484 -3.177830
RightLeg -5.810811 -0.000000 0.000000
RightFoot -11.967149 -13.419580 17.716065
RightToeBase 13.909645 -0.000000 -0.000000
LeftUpLeg 9.932781 1.580255 -0.704138
LeftLeg -2.428946 -0.000000 0.000000
LeftFoot -9.611042 11.799917 -15.884927
LeftToeBase 9.377658 -0.000000 -0.000000
Spine 3.151008 -3.687973 -2.251171
RightShoulder -3.703097 -7.128027 -24.806553
RightArm 7.826035 28.458858 32.116116
RightForeArm 7.341611 -0.000000 18.858692
RightHand 1.072727 -0.000000 0.899746
RightHandThumb1 -24.326973 -0.000000 -32.862282
LeftShoulder -22.825854 29.044012 15.851003
LeftArm 42.811762 -49.532709 -54.184348
LeftForeArm 39.442839 0.000000 6.806647
LeftHand -16.949190 0.000000 -8.582124
LeftHandThumb1 -26.253704 0.000000 33.147579
Head -1.901260 12.940181 4.270715
46
root 1.865294 37.138913 6.031124 -2.296359 -2.700015 2.175531
RightUpLeg 11.578174 1.271347 -3.185994
RightLeg -5.790450 -0.000000 0.000000
RightFoot -11.988669 -13.450572 17.723280
RightToeBase 13.944027 -0.000000 -0.000000
LeftUpLeg 9.918531 1.571893 -0.713590
LeftLeg -2.407865 -0.000000 0.000000
LeftFoot -9.607345 11.778826 -15.820181
LeftToeBase 9.353270 -0.000000 -0.000000
Spine 3.154711 -3.706239 -2.265273
RightShoulder -3.692498 -7.134505 -24.789250
RightArm 7.803539 28.437077 32.127446
RightForeArm 7.306675 -0.000000 18.971664
RightHand 1.099322 -0.000000 0.827948
RightHandThumb1 -24.326973 -0.000000 -32.862282
LeftShoulder -22.837659 29.060484 15.852435
LeftArm 42.817791 -49.536284 -54.196406
LeftForeArm 39.435745 -0.000000 6.888267
LeftHand -16.958337 0.000000 -8.526347
LeftHandThumb1 -26.253704 0.000000 33.147579
Head -1.903806 12.919235 4.273654
47
root 1.875786 37.139463 6.033459 -2.301646 -2.675356 2.188928
RightUpLeg 11.583331 1.272537 -3.215869
RightLeg -5.773929 -0.000000 0.000000
RightFoot -12.020326 -13.453581 17.776672
RightToeBase 13.979704 -0.000000 -0.000000
LeftUpLeg 9.908262 1.527909 -0.752932
LeftLeg -2.375480 -0.000000 0.000000
LeftFoot -9.644976 11.816749 -15.871651
LeftToeBase 9.409686 -0.000000 -0.000000
Spine 3.171449 -3.730341 -2.287198
RightShoulder -3.692753 -7.152159 -24.771871
RightArm 7.807764 28.439577 32.155455
RightForeArm 7.295469 -0.000000 19.088724
RightHand 1.112990 -0.000000 0.795577
RightHandThumb1 -24.326973 -0.000000 -32.862282
LeftShoulder -22.868894 29.109835 15.809381
LeftArm 42.874836 -49.565993 -54.234155
LeftForeArm 39.434104 -0.000000 6.982740
LeftHand -16.937726 0.000000 -8.467040
LeftHandThumb1 -26.253704 0.000000 33.147579
Head -1.924725 12.954796 4.270289
